# xmcd CD database file
#
# Track frame offsets:
#	150
#	37766
#	64689
#	98681
#	133162
#	152008
#	185054
#	226053
#	256530
#	265421
#
# Disc length: 3841 seconds
#
# Revision: 2
# Processed by: cddbd v1.5.2PL0 Copyright (c) Steve Scherf et al.
# Submitted via: CDex 1.70beta2
#
DISCID=790eff0a
DTITLE=モーツァルト - 100曲モーツァルト_CD4 おやすみモーツァルト
DYEAR=2005
DGENRE=Classical
TTITLE0=弦楽五重奏曲 第1番 変ロ長調 K.174 第2楽章アダージョ
TTITLE1=クラリネット五重奏曲 イ長調 K.581 第2楽章ラルゲット
TTITLE2=ピアノ協奏曲 第27番 変ロ長調 K.595 第2楽章ラルゲット
TTITLE3=弦楽四重奏曲 第19番 ハ長調 K.465 《不協和音》 第2楽章アンダンテ・カンタービレ
TTITLE4=セレナード 第12番 ハ短調 K.388（384a） 《ナハトムジーク》 第2楽章アンダンテ
TTITLE5=クラリネット協奏曲 イ長調 K.622 第2楽章アダージョ
TTITLE6=弦楽四重奏曲 第23番 へ長調 K.590 第2楽章アンダンテ
TTITLE7=ヴァイオリン・ソナタ 第34番 変ロ長調 K.378 第2楽章アンダンティーノ・ソステヌート・エ・カンタービレ
TTITLE8=歌劇《ドン・ジョヴァンニ》 K.527 「セレナード゛」
TTITLE9=自動オルガンのためのアンダンテ へ長調 K.616
EXTD=YEAR: 2005
EXTT0=
EXTT1=
EXTT2=
EXTT3=
EXTT4=
EXTT5=
EXTT6=
EXTT7=
EXTT8=
EXTT9=
PLAYORDER=
